<svg xmlns="http://www.w3.org/2000/svg" version="1.1" xmlns:xlink="http://www.w3.org/1999/xlink" xmlns:svgjs="http://svgjs.com/svgjs" width="512" height="512" x="0" y="0" viewBox="0 0 850 850" style="enable-background:new 0 0 512 512" xml:space="preserve" class=""><g><circle cx="425" cy="425" r="425" fill="#663333" data-original="#663333"></circle><path fill="#ffffff" d="M439 495c-9 0-18-2-28-5-18-7-34-20-45-37s-16-36-14-53c3-17 12-30 25-38 16-9 37-10 56-2 18 7 35 20 46 37s16 35 14 53c-3 16-11 29-25 37-8 5-19 8-29 8zm-73-93c-4 29 19 63 50 74 17 7 33 6 45-1 10-6 16-15 18-27 4-29-19-63-51-74-16-7-32-7-44 0-10 6-16 16-18 28z" data-original="#ffffff"></path><path fill="#ffffff" d="M470 484c-3 0-5-2-6-4-9-20-31-34-52-48-26-17-50-33-46-59 1-4 4-7 8-6s7 5 6 8c-3 17 17 30 40 45 21 14 46 31 56 54 2 4 0 8-3 9-1 1-2 1-3 1z" data-original="#ffffff"></path><path fill="#ffffff" d="M508 620h-97c-4 0-7-3-7-7s3-7 7-7h97c15 0 27-12 27-27V339c0-1-1-2-2-2H312c-1 0-2 1-2 2v153c0 4-3 7-7 7s-7-3-7-7V339c0-9 7-16 16-16h221c9 0 16 7 16 16v240c0 23-18 41-41 41z" data-original="#ffffff"></path><path fill="#ffffff" d="M624 620H411c-4 0-7-3-7-7s3-7 7-7h213c4 0 7 3 7 7s-3 7-7 7zm-386 0h-17c-4 0-7-3-7-7s3-7 7-7h17c4 0 7 3 7 7s-3 7-7 7zM574 552h-32c-4 0-7-3-7-7s3-7 7-7h32c26 0 48-26 48-57v-55c0-31-22-57-48-57h-32c-4 0-7-3-7-7s3-7 7-7h32c17 0 32 8 44 21 12 14 18 31 18 50v55c0 19-6 36-18 50-12 13-27 21-44 21z" data-original="#ffffff"></path><path fill="#ffffff" d="M569 526h-27c-4 0-7-3-7-7s3-7 7-7h27c14 0 25-11 25-25v-67c0-13-12-25-25-25h-27c-4 0-7-3-7-7s3-7 7-7h27c21 0 39 18 39 39v67c0 21-18 39-39 39zM324 681c-26 0-51-10-70-29s-29-44-29-70 10-51 29-70 44-29 70-29c55 0 100 44 100 99s-45 99-100 99zm0-184c-47 0-85 38-85 85s38 85 85 85 86-38 86-85-39-85-86-85z" data-original="#ffffff"></path><path fill="#ffffff" d="M324 527c-4 0-7-3-7-7v-30c0-4 3-7 7-7s7 3 7 7v30c0 4-3 7-7 7zM355 534c-1 0-2 0-4-1-3-2-4-6-2-10l15-25c2-3 6-4 10-2 3 2 4 6 2 10l-15 25c-1 2-4 3-6 3zM379 557c-2 0-5-1-6-3-2-4-1-8 2-10l25-15c4-2 8-1 10 2 2 4 1 8-2 10l-25 15c-2 1-3 1-4 1zM417 588h-29c-4 0-7-3-7-7s3-7 7-7h29c4 0 7 3 7 7s-3 7-7 7zM405 634c-1 0-2 0-3-1l-25-14c-4-2-5-6-3-9 2-4 6-5 9-3l25 14c4 2 5 6 3 9-1 3-4 4-6 4zM372 668c-3 0-5-1-6-4l-14-25c-2-3-1-7 3-9 3-2 7-1 9 3l14 25c2 3 1 7-3 9-1 1-2 1-3 1zM326 681c-4 0-7-3-7-7v-28c0-4 3-7 7-7s7 3 7 7v28c0 4-3 7-7 7zM280 670c-1 0-2 0-4-1-3-2-4-6-2-10l15-25c2-3 6-4 10-2 3 2 4 6 2 10l-15 25c-1 2-4 3-6 3zM246 637c-2 0-5-1-6-3-2-4-1-8 2-10l25-15c4-2 8-1 10 2 2 4 1 8-2 10l-25 15c-1 1-3 1-4 1zM262 591h-30c-4 0-7-3-7-7s3-7 7-7h30c4 0 7 3 7 7s-3 7-7 7zM270 559c-1 0-2 0-3-1l-26-15c-4-2-5-6-3-10 2-3 6-4 10-2l26 15c3 2 4 6 2 10-1 2-4 3-6 3zM292 536c-2 0-5-1-6-3l-15-26c-2-4-1-8 2-10 4-2 8-1 10 3l15 26c2 3 1 7-2 9-2 1-3 1-4 1zM324 601c-10 0-18-9-18-19 0-7 4-14 10-17v-21c0-4 3-7 7-7s7 3 7 7v20c6 2 10 6 12 11h27c4 0 7 3 7 7s-3 7-7 7h-27c-3 7-10 12-18 12zm0-24c-3 1-4 3-4 5s2 5 4 5c3 0 5-3 5-5 0-3-2-5-5-5zM460 301c-3 0-5-1-6-4-2-3-1-7 3-9 7-4 12-11 13-18 2-11-3-23-9-30-8-6-14-20-14-34 0-15 8-29 22-36 3-2 7-1 9 3 2 3 1 7-3 9-11 7-14 17-14 25 0 10 4 19 9 22l1 1c8 9 16 26 13 42-2 12-9 22-21 28-1 1-2 1-3 1zM374 301c-3 0-5-1-6-4-2-3-1-7 3-9 7-4 11-10 13-17 2-11-3-23-9-31-9-6-15-20-15-35 1-15 8-28 21-35 4-2 8-1 10 3 2 3 1 7-3 9-11 6-14 16-14 24 0 10 5 20 10 23 0 1 1 1 1 2 8 9 15 26 13 42-3 12-10 21-21 27-1 1-2 1-3 1z" data-original="#ffffff"></path></g></svg>